<?xml version="1.0" encoding="UTF-8" standalone="no"?>
<svg
   xmlns:dc="http://purl.org/dc/elements/1.1/"
   xmlns:cc="http://creativecommons.org/ns#"
   xmlns:rdf="http://www.w3.org/1999/02/22-rdf-syntax-ns#"
   xmlns:svg="http://www.w3.org/2000/svg"
   xmlns="http://www.w3.org/2000/svg"
   xml:space="preserve"
   enable-background="new 0 0 50 50"
   viewBox="0 0 23.961489 23.900322"
   height="23.900322"
   width="23.961489"
   y="0px"
   x="0px"
   id="Ebene_1"
   version="1.1"><metadata
     id="metadata43"><rdf:RDF><cc:Work
         rdf:about=""><dc:format>image/svg+xml</dc:format><dc:type
           rdf:resource="http://purl.org/dc/dcmitype/StillImage" /><dc:title></dc:title></cc:Work></rdf:RDF></metadata><defs
     id="defs41" /><g
     transform="translate(-14.319114,-13.087151)"
     id="g3"><path
       style="clip-rule:evenodd;fill:#323114;fill-rule:evenodd"
       id="path5"
       d="m 26.278,14.736 c -5.72,0 -10.356,4.637 -10.356,10.356 0,5.097 3.68,9.327 8.527,10.192 0,-2.338 0,-4.676 0,-7.014 0,-0.164 0,-0.164 -0.163,-0.164 -0.786,0 -1.573,0 -2.36,0 -0.152,0 -0.152,-0.002 -0.152,-0.15 0,-0.92 0,-1.84 0,-2.759 0,-0.153 0,-0.153 0.15,-0.153 0.787,0 1.574,0 2.361,0 0.164,0 0.164,0 0.164,-0.164 0,-0.736 -0.009,-1.474 0.005,-2.211 0.006,-0.324 0.038,-0.65 0.095,-0.971 0.129,-0.723 0.426,-1.371 0.942,-1.902 0.621,-0.639 1.396,-0.965 2.269,-1.053 0.441,-0.045 0.891,-0.04 1.336,-0.029 0.525,0.014 1.049,0.059 1.574,0.086 0.091,0.004 0.112,0.045 0.112,0.128 -0.002,0.836 -0.002,1.671 0,2.508 0,0.098 -0.028,0.134 -0.13,0.132 -0.369,-0.004 -0.74,-0.004 -1.111,0 -0.277,0.004 -0.553,0.002 -0.827,0.027 -0.574,0.053 -0.938,0.379 -1.036,0.916 -0.031,0.17 -0.047,0.346 -0.049,0.52 -0.006,0.611 -0.002,1.225 -0.002,1.836 0,0.178 0,0.178 0.175,0.178 0.908,0 1.816,0 2.724,0 0.137,0 0.149,0.017 0.134,0.141 -0.12,0.922 -0.239,1.844 -0.358,2.766 -0.021,0.152 -0.022,0.156 -0.176,0.156 -0.783,0 -1.566,0.002 -2.35,-0.004 -0.114,0 -0.152,0.034 -0.15,0.148 0.006,0.439 0.002,0.879 0.002,1.316 0,1.932 0,3.86 0,5.791 5.082,-0.662 9.008,-5.006 9.008,-10.267 C 36.635,19.373 31.998,14.736 26.278,14.736 Z" /><circle
       style="fill:none;stroke:#323114;stroke-miterlimit:10"
       id="circle7"
       r="11.557"
       cy="25.047001"
       cx="26.278"
       stroke-miterlimit="10" /></g><g
     transform="translate(-14.319114,-13.087151)"
     id="g27"><g
       id="g29"><path
         style="clip-rule:evenodd;fill:#35341a;fill-rule:evenodd"
         id="path31"
         d="m 142.984,22.283 c 0,-1.204 -0.719,-3.076 -2.102,-3.076 -0.436,0 -0.901,0.217 -1.17,0.553 -0.283,0.352 -0.365,0.801 -0.365,1.236 0,1.119 0.649,2.975 2.085,2.975 0.417,0 0.866,-0.198 1.134,-0.467 0.385,-0.385 0.418,-0.92 0.418,-1.221 z" /><path
         style="clip-rule:evenodd;fill:#35341a;fill-rule:evenodd"
         id="path33"
         d="m 142.082,26.68 c -0.132,-0.016 -0.216,-0.016 -0.383,-0.016 -0.15,0 -1.051,0.033 -1.752,0.269 -0.367,0.132 -1.434,0.534 -1.434,1.721 0,1.187 1.15,2.04 2.936,2.04 1.602,0 2.453,-0.771 2.453,-1.805 0,-0.856 -0.55,-1.306 -1.82,-2.209 z" /><path
         style="clip-rule:evenodd;fill:#35341a;fill-rule:evenodd"
         id="path35"
         d="m 143.275,14.663 c -5.699,0 -10.32,4.62 -10.32,10.322 0,5.7 4.621,10.321 10.32,10.321 5.701,0 10.323,-4.621 10.323,-10.321 10e-4,-5.702 -4.621,-10.322 -10.323,-10.322 z m -2.644,16.732 c -2.419,0 -3.586,-1.152 -3.586,-2.391 0,-0.602 0.299,-1.453 1.283,-2.039 1.035,-0.635 2.437,-0.719 3.188,-0.77 -0.234,-0.301 -0.5,-0.619 -0.5,-1.137 0,-0.284 0.083,-0.451 0.166,-0.652 -0.185,0.018 -0.367,0.033 -0.533,0.033 -1.769,0 -2.77,-1.32 -2.77,-2.625 0,-0.768 0.35,-1.621 1.066,-2.24 0.953,-0.786 2.252,-0.998 3.154,-0.998 l 3.287,0 -1.086,0.681 -1.033,0 c 0.384,0.317 1.184,0.987 1.184,2.257 0,1.236 -0.699,1.824 -1.4,2.375 -0.217,0.217 -0.468,0.451 -0.468,0.819 0,0.367 0.251,0.567 0.434,0.72 l 0.602,0.467 c 0.733,0.618 1.401,1.187 1.401,2.342 0,1.571 -1.52,3.158 -4.389,3.158 z m 8.877,-6.614 -1.677,0 0,1.682 -0.825,0 0,-1.682 -1.669,0 0,-0.835 1.669,0 0,-1.673 0.825,0 0,1.673 1.677,0 0,0.835 z" /></g><circle
       style="fill:none;stroke:#323114;stroke-miterlimit:10"
       id="circle37"
       r="11.557"
       cy="25.047001"
       cx="143.276"
       stroke-miterlimit="10" /></g><path
     id="path4171"
     d="m 13.395784,18.63384 0,-3.603713 1.310293,0 1.310294,0 0.11731,-0.926907 c 0.06452,-0.509799 0.148824,-1.201006 0.187342,-1.536017 l 0.07003,-0.60911 -1.505843,0 -1.505844,0 0.03469,-1.427445 c 0.04639,-1.9088012 0.03462,-1.8959842 1.785224,-1.9447742 l 1.268535,-0.03535 0,-1.416413 0,-1.416413 -0.363006,-0.0681 c -0.199652,-0.03746 -1.021951,-0.0511 -1.82733,-0.03031 -1.320941,0.03409 -1.523661,0.0655 -2.070294,0.320832 -0.793462,0.37062 -1.489789,1.095808 -1.789061,1.863215 -0.197369,0.506104 -0.246471,0.894252 -0.297774,2.3539172 l -0.06143,1.747882 -1.324152,0.05297 -1.324153,0.05297 0,1.483051 0,1.483051 1.350636,0.02965 1.350635,0.02965 0,3.553981 0,3.553981 -0.344279,-0.07236 C 7.840359,21.667014 5.80388,20.505487 4.442131,19.034634 -0.194066,14.026989 1.15149,6.0788728 7.172983,2.9036568 c 4.023398,-2.12159302 8.812483,-1.389785 12.061034,1.843015 4.339756,4.318717 3.942474,11.4441322 -0.852361,15.2874122 -1.328681,1.064998 -2.731651,1.70423 -4.694558,2.13897 l -0.291313,0.06452 0,-3.603713 z"
     style="opacity:0.66000001;fill:#000000;fill-opacity:1;stroke:none;stroke-width:1;stroke-miterlimit:4;stroke-dasharray:none;stroke-opacity:1" /><path
     id="path4173"
     d="M 9.82909,23.778111 C 4.914055,22.843607 1.125585,19.069928 0.142866,14.129703 c -0.190488,-0.957599 -0.190488,-3.385622 0,-4.3432202 0.869551,-4.371316 3.889455,-7.818662 8.06224,-9.20338002 1.497337,-0.496884 2.568805,-0.636855 4.331172,-0.565801 2.174975,0.08769 3.958488,0.636243 5.782349,1.77847502 3.830859,2.399157 6.056762,6.918311 5.578687,11.3261692 -0.554839,5.115635 -4.055679,9.161084 -9.088003,10.501781 -1.074133,0.286168 -3.836691,0.371805 -4.980221,0.154384 z m 3.778558,-0.850918 c 2.331668,-0.353405 4.301238,-1.324743 6.024455,-2.971094 4.589365,-4.384654 4.544662,-11.7215352 -0.09799,-16.0824982 -4.27378,-4.01447102 -10.977275,-4.00525202 -15.182596,0.02088 -2.289649,2.192086 -3.455731,4.913026 -3.455731,8.0636122 0,2.479453 0.708518,4.665865 2.127371,6.564845 2.513859,3.364525 6.500278,5.023291 10.584493,4.404255 z"
     style="opacity:0.66000001;fill:#000000;fill-opacity:1;stroke:none;stroke-width:1;stroke-miterlimit:4;stroke-dasharray:none;stroke-opacity:1" /></svg>