<?xml version="1.0" encoding="UTF-8" standalone="no"?>
<svg
   xmlns:dc="http://purl.org/dc/elements/1.1/"
   xmlns:cc="http://creativecommons.org/ns#"
   xmlns:rdf="http://www.w3.org/1999/02/22-rdf-syntax-ns#"
   xmlns:svg="http://www.w3.org/2000/svg"
   xmlns="http://www.w3.org/2000/svg"
   version="1.1"
   id="Ebene_1"
   x="0px"
   y="0px"
   width="24.114"
   height="24.114"
   viewBox="0 0 24.114 24.114"
   enable-background="new 0 0 50 50"
   xml:space="preserve"><metadata
     id="metadata43"><rdf:RDF><cc:Work
         rdf:about=""><dc:format>image/svg+xml</dc:format><dc:type
           rdf:resource="http://purl.org/dc/dcmitype/StillImage" /><dc:title></dc:title></cc:Work></rdf:RDF></metadata><defs
     id="defs41" /><g
     id="g9"
     transform="translate(-12.887,-12.990001)"><path
       d="m 24.943,14.726 c -5.7,0 -10.321,4.621 -10.321,10.322 0,5.7 4.621,10.321 10.321,10.321 5.701,0 10.323,-4.621 10.323,-10.321 0.001,-5.701 -4.621,-10.322 -10.323,-10.322 z m 6.43,7.449 c 0.008,0.126 0.009,0.249 0.009,0.374 0,3.815 -2.904,8.217 -8.214,8.217 -1.633,0 -3.151,-0.479 -4.428,-1.299 0.227,0.026 0.455,0.041 0.688,0.041 1.355,0 2.598,-0.463 3.587,-1.238 -1.262,-0.021 -2.328,-0.86 -2.696,-2.005 0.177,0.032 0.356,0.053 0.544,0.053 0.263,0 0.734,-0.036 0.976,-0.101 -1.321,-0.267 -2.103,-1.433 -2.103,-2.832 0,-0.012 0,-0.021 0,-0.036 0,0.216 0.623,0.348 1.094,0.362 -0.774,-0.518 -1.392,-1.401 -1.392,-2.402 0,-0.529 0.088,-1.025 0.337,-1.451 1.423,1.748 3.524,2.898 5.924,3.018 -0.051,-0.209 -0.09,-0.432 -0.09,-0.656 0,-1.596 1.287,-2.889 2.881,-2.889 0.83,0 1.578,0.352 2.105,0.912 0.658,-0.132 1.272,-0.369 1.831,-0.701 -0.214,0.672 -0.673,1.24 -1.27,1.598 0.581,-0.07 1.136,-0.224 1.651,-0.451 0.003,-0.002 0.004,-0.004 0.005,-0.007 l 0.002,0.005 c -10e-4,0 -0.004,0.002 -0.007,0.002 -0.383,0.576 -0.871,1.082 -1.434,1.486 z"
       id="path11"
       style="clip-rule:evenodd;fill:#35341a;fill-rule:evenodd" /><circle
       stroke-miterlimit="10"
       cx="24.944"
       cy="25.047001"
       r="11.557"
       id="circle13"
       style="fill:none;stroke:#323114;stroke-miterlimit:10" /></g><path
     id="path3336"
     d="M 11.106745,22.29642 C 8.4233591,21.917434 6.53283,21.016761 4.8150346,19.298966 3.3378892,17.821821 2.3999896,16.064865 1.9472908,13.926857 1.8753862,13.587265 1.82157,12.698466 1.826648,11.934387 c 0.00749,-1.127126 0.056366,-1.559153 0.2672402,-2.3622411 1.0186039,-3.8792261 4.042239,-6.7662493 7.9278678,-7.569677 1.304713,-0.2697742 3.436057,-0.2152521 4.661218,0.119239 3.522677,0.9617543 6.347564,3.786641 7.309318,7.3093185 0.334492,1.2251616 0.389013,3.3565046 0.11924,4.6612176 -0.959048,4.638254 -4.912596,8.01397 -9.607666,8.203454 -0.599822,0.02421 -1.228527,0.02453 -1.397121,7.16e-4 l 0,6e-6 z m 0.204356,-4.542634 c 2.724305,-0.311792 5.062172,-1.956465 6.267702,-4.409282 0.613005,-1.247245 0.817011,-1.964612 0.902814,-3.174663 l 0.06354,-0.8960328 0.699993,-0.7126013 c 0.384996,-0.3919307 0.699993,-0.7568427 0.699993,-0.8109156 0,-0.056772 -0.161906,-0.042047 -0.383167,0.034848 -0.210742,0.073239 -0.521108,0.1666709 -0.689701,0.2076255 l -0.306534,0.074463 0.270571,-0.2887915 c 0.324787,-0.3466569 0.699208,-0.9536522 0.699737,-1.1343835 3.07e-4,-0.096805 -0.08507,-0.085726 -0.331696,0.043055 -0.182643,0.095371 -0.583272,0.2517748 -0.890286,0.3475642 L 17.755856,7.2088349 17.394461,6.9190363 C 16.264143,6.0126446 14.604997,6.123803 13.552352,7.1764474 12.95331,7.775489 12.690504,8.4106612 12.690504,9.2594282 l 0,0.5583329 -0.627373,-0.065573 C 10.559473,9.5950243 8.7263891,8.6741649 7.5243121,7.4720878 L 6.8623505,6.8101262 6.7061906,7.1838694 C 6.6193281,7.3917606 6.549059,7.8650678 6.5478411,8.2504554 6.545305,9.05295 6.7751331,9.6397442 7.3286765,10.244073 l 0.3524698,0.384807 -0.279671,-0.04804 c -0.153819,-0.02642 -0.3615531,-0.083 -0.4616312,-0.125722 -0.16371,-0.06989 -0.1752929,-0.03291 -0.1154845,0.368716 0.1509205,1.01346 0.739808,1.881089 1.5235803,2.244744 l 0.4087119,0.189636 -0.684386,0.0022 -0.6843861,0.0022 0.1157561,0.332079 c 0.063666,0.182643 0.353411,0.569739 0.6438782,0.860213 0.4140117,0.414022 0.6668579,0.570724 1.1702147,0.725247 l 0.6420926,0.197111 -0.5504958,0.311914 c -0.8556517,0.484809 -1.4865066,0.662287 -2.5940551,0.729773 l -1.0217796,0.06226 0.4955518,0.29668 c 0.942005,0.563965 2.4653057,0.981564 3.8981004,1.068628 0.112396,0.0068 0.618177,-0.03494 1.123958,-0.09283 z"
     style="opacity:0.66000001;fill:#000000;fill-opacity:1;stroke:none;stroke-width:1;stroke-miterlimit:4;stroke-dasharray:none;stroke-opacity:1" /><path
     id="path3338"
     d="M 11.106745,24.034307 C 9.0265031,23.746355 7.9744917,23.439274 6.5528807,22.705042 1.5904304,20.142036 -0.95150402,14.480881 0.43021521,9.0692216 1.3377315,5.5148313 3.9209921,2.5028941 7.3261603,1.0289355 8.746314,0.41420887 9.8889391,0.16963886 11.617635,0.11037878 12.790422,0.07017536 13.366234,0.09762852 14.069906,0.22729665 19.176132,1.168238 22.945762,4.937869 23.886703,10.044094 c 0.227522,1.234694 0.152485,3.614725 -0.152365,4.832753 -1.135211,4.535737 -4.754353,8.013445 -9.313813,8.949837 -0.785974,0.161418 -2.755917,0.284844 -3.31378,0.207623 z m 2.299004,-0.965783 c 3.763866,-0.48688 7.002106,-2.800283 8.636261,-6.169755 0.693364,-1.429653 0.973317,-2.592294 1.041516,-4.325412 C 23.171855,10.328725 22.851712,8.8279182 21.879223,6.9276662 20.55672,4.3434861 18.201069,2.3648583 15.39822,1.4839532 14.109903,1.0790493 13.177948,0.96900839 11.547006,1.0292202 9.8112379,1.0933019 8.6635229,1.3695867 7.2152319,2.0719906 2.3722537,4.4207773 -0.0970717,9.9775834 1.40255,15.152464 c 1.5094545,5.208812 6.6621036,8.606962 12.003199,7.91606 z"
     style="opacity:0.66000001;fill:#000000;fill-opacity:1;stroke:none;stroke-width:1;stroke-miterlimit:4;stroke-dasharray:none;stroke-opacity:1" /></svg>