<?xml version="1.0" encoding="UTF-8" standalone="no"?>
<svg
   xmlns:dc="http://purl.org/dc/elements/1.1/"
   xmlns:cc="http://creativecommons.org/ns#"
   xmlns:rdf="http://www.w3.org/1999/02/22-rdf-syntax-ns#"
   xmlns:svg="http://www.w3.org/2000/svg"
   xmlns="http://www.w3.org/2000/svg"
   version="1.1"
   id="Ebene_1"
   x="0px"
   y="0px"
   width="24.114"
   height="24.114"
   viewBox="0 0 24.114 24.114"
   enable-background="new 0 0 50 50"
   xml:space="preserve"><metadata
     id="metadata43"><rdf:RDF><cc:Work
         rdf:about=""><dc:format>image/svg+xml</dc:format><dc:type
           rdf:resource="http://purl.org/dc/dcmitype/StillImage" /><dc:title></dc:title></cc:Work></rdf:RDF></metadata><defs
     id="defs41" /><g
     id="g15"
     transform="translate(-14.553,-12.990001)"><g
       id="g17"><g
         id="g19"><path
           d="m 26.93,18.961 c -3.148,0 -5.711,2.563 -5.711,5.711 0,1.252 0.404,2.407 1.087,3.352 l -0.713,2.119 2.194,-0.702 c 0.902,0.597 1.982,0.944 3.143,0.944 3.15,0 5.712,-2.561 5.712,-5.713 0,-3.149 -2.562,-5.711 -5.712,-5.711 z m 3.333,8.067 c -0.138,0.388 -0.686,0.709 -1.12,0.805 -0.3,0.065 -0.689,0.115 -2.002,-0.429 -1.682,-0.697 -2.762,-2.402 -2.846,-2.512 -0.082,-0.113 -0.68,-0.904 -0.68,-1.726 0,-0.819 0.417,-1.217 0.583,-1.39 0.138,-0.139 0.364,-0.203 0.583,-0.203 0.07,0 0.133,0.002 0.19,0.008 0.171,0.004 0.256,0.014 0.364,0.282 0.139,0.333 0.473,1.151 0.514,1.233 0.043,0.084 0.08,0.199 0.024,0.312 -0.056,0.11 -0.103,0.161 -0.186,0.259 -0.083,0.098 -0.162,0.17 -0.247,0.275 -0.075,0.091 -0.164,0.189 -0.067,0.356 0.098,0.165 0.433,0.712 0.927,1.152 0.637,0.568 1.156,0.749 1.339,0.827 0.141,0.059 0.304,0.045 0.405,-0.063 0.129,-0.137 0.285,-0.367 0.446,-0.592 0.118,-0.162 0.259,-0.18 0.411,-0.125 0.153,0.058 0.972,0.46 1.139,0.545 0.166,0.081 0.277,0.121 0.318,0.193 0.043,0.072 0.043,0.406 -0.095,0.793 z"
           id="path21"
           style="clip-rule:evenodd;fill:#35341a;fill-rule:evenodd" /><path
           d="m 26.61,14.727 c -5.701,0 -10.322,4.62 -10.322,10.321 0,5.7 4.621,10.321 10.322,10.321 5.701,0 10.321,-4.621 10.321,-10.321 C 36.932,19.347 32.312,14.727 26.61,14.727 Z m 0.32,16.74 c -1.191,0 -2.311,-0.307 -3.283,-0.848 l -3.762,1.207 1.227,-3.646 c -0.619,-1.024 -0.976,-2.226 -0.976,-3.509 0,-3.751 3.042,-6.791 6.794,-6.791 3.752,0 6.794,3.04 6.794,6.791 0,3.755 -3.042,6.796 -6.794,6.796 z"
           id="path23"
           style="clip-rule:evenodd;fill:#35341a;fill-rule:evenodd" /></g></g><circle
       stroke-miterlimit="10"
       cx="26.610001"
       cy="25.047001"
       r="11.557"
       id="circle25"
       style="fill:none;stroke:#323114;stroke-miterlimit:10" /></g><path
     id="path3339"
     d="M 11.106745,22.29642 C 8.4233591,21.917434 6.53283,21.016761 4.8150346,19.298966 3.3378892,17.821821 2.3999896,16.064865 1.9472908,13.926857 1.8753862,13.587265 1.82157,12.698466 1.826648,11.934387 c 0.00749,-1.127126 0.056366,-1.559153 0.2672402,-2.3622411 1.0186039,-3.8792261 4.042239,-6.7662493 7.9278678,-7.569677 1.304713,-0.2697742 3.436057,-0.2152521 4.661218,0.119239 3.522677,0.9617543 6.347564,3.786641 7.309318,7.3093185 0.334492,1.2251616 0.389013,3.3565046 0.11924,4.6612176 -0.959048,4.638254 -4.912596,8.01397 -9.607666,8.203454 -0.599822,0.02421 -1.228527,0.02453 -1.397121,7.16e-4 l 0,6e-6 z M 7.2230882,18.283576 9.0613976,17.689401 9.6105677,17.93227 c 1.2287783,0.543424 3.0505343,0.701463 4.4082493,0.382418 2.49805,-0.587008 4.516811,-2.697278 5.048724,-5.27758 0.205276,-0.995796 0.205276,-1.720536 0,-2.716332 C 18.406372,7.1134547 15.66344,4.8805614 12.39088,4.8856171 11.205851,4.8874479 10.320877,5.0828759 9.3673411,5.5533027 6.0477583,7.1910183 4.6273086,11.167477 6.1679205,14.509877 l 0.3295562,0.714981 -0.5818934,1.755291 c -0.5435722,1.639693 -0.6215568,1.906017 -0.5563489,1.899971 0.014049,-0.0013 0.8527836,-0.269747 1.8638538,-0.596544 z"
     style="opacity:0.66000001;fill:#000000;fill-opacity:1;stroke:none;stroke-width:1;stroke-miterlimit:4;stroke-dasharray:none;stroke-opacity:1" /><path
     id="path3341"
     d="m 11.464368,17.279229 c -0.472389,-0.07908 -1.273602,-0.361118 -1.75314,-0.617138 L 9.2353126,16.408004 8.2327165,16.720198 c -0.5514279,0.171708 -1.0202314,0.29456 -1.0417857,0.273005 -0.021554,-0.02155 0.1061911,-0.475571 0.2838785,-1.008925 L 7.7978773,15.014541 7.5363877,14.600315 C 7.0461268,13.823691 6.7641814,12.76657 6.7641814,11.705016 c 0,-1.64701 0.5060255,-2.8595594 1.6746199,-4.012762 0.8489352,-0.8377538 1.4834417,-1.2030217 2.5744957,-1.4820664 1.954913,-0.4999824 3.850329,0.026819 5.300156,1.4730946 1.169846,1.1669809 1.690305,2.3972778 1.690305,3.9956598 0,1.592919 -0.520904,2.826959 -1.682831,3.986687 -0.395093,0.394346 -0.95632,0.843657 -1.247171,0.998468 -0.994333,0.529255 -2.544345,0.793415 -3.609388,0.615132 z m 3.502877,-2.52178 c 0.510212,-0.217398 0.805349,-0.603231 0.864783,-1.130533 l 0.05252,-0.465932 -0.785258,-0.357854 c -0.431892,-0.196819 -0.847818,-0.357854 -0.924279,-0.357854 -0.07646,0 -0.284688,0.183921 -0.462726,0.408712 -0.178038,0.224792 -0.39471,0.408712 -0.481493,0.408712 -0.496379,0 -1.99504,-1.22997 -2.291525,-1.880682 -0.09978,-0.218984 -0.07871,-0.29764 0.15365,-0.573787 0.148101,-0.176008 0.269275,-0.405417 0.269275,-0.509797 0,-0.198074 -0.475519,-1.3864442 -0.643511,-1.6081979 C 10.542862,8.4581526 9.8470504,8.5356948 9.5638087,8.8189365 8.5536511,9.8290942 8.9793938,11.390118 10.74843,13.162456 c 1.334501,1.336992 3.183623,2.036083 4.218815,1.594993 z"
     style="opacity:0.66000001;fill:#000000;fill-opacity:1;stroke:none;stroke-width:1;stroke-miterlimit:4;stroke-dasharray:none;stroke-opacity:1" /><path
     id="path3343"
     d="M 11.106745,24.034307 C 9.0265031,23.746355 7.9744917,23.439274 6.5528807,22.705042 1.5904304,20.142036 -0.95150402,14.480881 0.43021521,9.0692216 1.3377315,5.5148313 3.9209921,2.5028941 7.3261603,1.0289355 8.746314,0.41420887 9.8889391,0.16963886 11.617635,0.11037878 12.790422,0.07017536 13.366234,0.09762852 14.069906,0.22729665 19.176132,1.168238 22.945762,4.937869 23.886703,10.044094 c 0.227522,1.234694 0.152485,3.614725 -0.152365,4.832753 -1.135211,4.535737 -4.754353,8.013445 -9.313813,8.949837 -0.785974,0.161418 -2.755917,0.284844 -3.31378,0.207623 z m 2.299004,-0.965783 c 3.763866,-0.48688 7.002106,-2.800283 8.636261,-6.169755 0.693364,-1.429653 0.973317,-2.592294 1.041516,-4.325412 C 23.171855,10.328725 22.851712,8.8279182 21.879223,6.9276662 20.55672,4.3434861 18.201069,2.3648583 15.39822,1.4839532 14.109903,1.0790493 13.177948,0.96900839 11.547006,1.0292202 9.8112379,1.0933019 8.6635229,1.3695867 7.2152319,2.0719906 2.3722537,4.4207773 -0.0970717,9.9775834 1.40255,15.152464 c 1.5094545,5.208812 6.6621036,8.606962 12.003199,7.91606 z"
     style="opacity:0.66000001;fill:#000000;fill-opacity:1;stroke:none;stroke-width:1;stroke-miterlimit:4;stroke-dasharray:none;stroke-opacity:1" /></svg>